<svg width="48" height="48" viewBox="0 0 48 48" fill="none" xmlns="http://www.w3.org/2000/svg">
<rect width="48" height="48" rx="4" fill="white"/>
<path d="M26.8448 17.7729C28.736 17.7729 30.4865 18.5686 31.8341 19.9019C33.1731 21.2281 34.1133 23.0895 34.3927 25.2305L35.4054 33.0203C35.6741 35.0825 35.188 37.0753 34.1901 38.6285C33.1837 40.1912 31.6592 41.3119 29.8533 41.6225C29.7083 41.6464 29.5654 41.6656 29.4183 41.6799L29.0196 41.7181L28.5036 41.7635L28.0068 41.8065L27.5292 41.8448L27.1838 41.871L26.9578 41.8878L26.7382 41.9021L26.5228 41.9165L26.3117 41.9284L26.0047 41.9451L25.7062 41.9595L25.4184 41.9714L25.0516 41.9857L24.7873 41.9929L24.5357 41.9977H24.3715L24.1369 42.0001H23.9024L23.7382 41.9977L23.4866 41.9929L23.3118 41.9881L22.9515 41.9762L22.5719 41.9595L22.2734 41.9451L21.9664 41.9284L21.7553 41.9165L21.54 41.9021L21.3203 41.8878L21.0943 41.871L20.7489 41.8448L20.2713 41.8065L19.7745 41.7635L19.2585 41.7181L18.8598 41.6799C17.0411 41.5055 15.4526 40.5043 14.3588 39.018C13.2714 37.5437 12.6744 35.5914 12.8237 33.5126C12.8365 33.3477 12.8514 33.1828 12.8727 33.0179L13.8855 25.2282C14.1648 23.0872 15.1051 21.2257 16.4441 19.8996C17.7916 18.5662 19.1088 18.0001 21 18.0001L26.8533 17.7705L26.8448 17.7729Z" fill="white" stroke="#1E1E1E"/>
<path fill-rule="evenodd" clip-rule="evenodd" d="M20.4275 29.896C21.1132 29.896 21.6691 31.32 21.6691 33.0765C21.6691 34.833 21.1132 36.257 20.4275 36.257C19.7419 36.257 19.186 34.833 19.186 33.0765C19.186 31.32 19.7419 29.896 20.4275 29.896ZM27.8767 29.896C28.5624 29.896 29.1182 31.32 29.1182 33.0765C29.1182 34.833 28.5624 36.257 27.8767 36.257C27.191 36.257 26.6352 34.833 26.6352 33.0765C26.6352 31.32 27.191 29.896 27.8767 29.896Z" fill="#1E1E1E"/>
<path d="M21.0338 6.35892C24.7991 5.52138 30.7927 5.81726 36.4267 10.9165C42.1597 16.104 42.0693 17.5572 41.9768 20.6187C41.7572 21.9072 41.4644 22.7948 41.1005 23.2816C40.6011 23.9521 39.8756 24.5415 38.9412 25.0307C37.191 25.947 34.6506 26.5292 31.5591 26.7726C28.7496 26.9921 27.1048 26.8752 25.7248 26.775C25.4536 26.7559 22.8056 26.6771 21.389 26.9516C19.9552 27.2283 18.84 27.5982 17.8174 27.9347C16.1037 28.4978 14.6376 28.9679 12.53 28.8867C10.6785 28.8151 9.2641 28.5622 8.26518 28.0611C7.11986 27.4884 6.44386 26.6127 6.18337 25.36C5.74849 23.2673 5.67529 18.7073 10.8421 12.8231C15.5052 7.51621 20.7754 6.41619 21.0338 6.35892Z" fill="#1E1E1E"/>
<mask id="mask0_28_3249" style="mask-type:luminance" maskUnits="userSpaceOnUse" x="5" y="5" width="39" height="25">
<path d="M21.0338 6.35892C24.7991 5.52138 30.7927 5.81726 36.4267 10.9165C42.1597 16.104 42.0693 17.5572 41.9768 20.6187C41.7572 21.9072 41.4644 22.7948 41.1005 23.2816C40.6011 23.9521 39.8756 24.5415 38.9412 25.0307C37.191 25.947 34.6506 26.5292 31.5591 26.7726C28.7496 26.9921 27.1048 26.8752 25.7248 26.775C25.4536 26.7559 22.8056 26.6771 21.389 26.9516C19.9552 27.2283 18.84 27.5982 17.8174 27.9347C16.1037 28.4978 14.6376 28.9679 12.53 28.8867C10.6785 28.8151 9.2641 28.5622 8.26518 28.0611C7.11986 27.4884 6.44386 26.6127 6.18337 25.36C5.74849 23.2673 5.67529 18.7073 10.8421 12.8231C15.5052 7.51621 20.7754 6.41619 21.0338 6.35892Z" fill="white" stroke="#1E1E1E" stroke-width="2"/>
</mask>
<g mask="url(#mask0_28_3249)">
<path fill-rule="evenodd" clip-rule="evenodd" d="M25.6108 16.8246C28.1904 16.8246 30.2816 18.3149 30.2816 20.1534C30.2816 21.9918 28.1904 23.4822 25.6108 23.4822C23.0312 23.4822 20.9401 21.9918 20.9401 20.1534C20.9401 18.3149 23.0312 16.8246 25.6108 16.8246ZM38.2343 10.507C40.8561 10.507 42.9814 12.851 42.9814 15.7426C42.9814 18.6341 40.8561 20.9781 38.2343 20.9781C35.6125 20.9781 33.4871 18.6341 33.4871 15.7426C33.4871 12.851 35.6125 10.507 38.2343 10.507ZM11.8874 7.89404C15.1488 7.89404 17.7927 10.8099 17.7927 14.4069C17.7927 18.0038 15.1488 20.9197 11.8874 20.9197C8.62597 20.9197 5.98208 18.0038 5.98208 14.4069C5.98208 10.8099 8.62597 7.89404 11.8874 7.89404Z" fill="white"/>
</g>
</svg>
