<svg width="48" height="48" viewBox="0 0 48 48" fill="none" xmlns="http://www.w3.org/2000/svg">
    <rect width="48" height="48" rx="12" fill="#FFC43B"/>
    <path d="M32.392 19.064C31.976 18.824 31.168 18.704 29.968 18.704L30.112 20.192C30.24 21.056 30.352 22.672 30.448 25.04C30.592 25.008 30.688 24.968 30.736 24.92C30.864 24.824 31 24.776 31.144 24.776C31.352 24.728 31.552 24.584 31.744 24.344C32.224 23.944 32.592 23.608 32.848 23.336L33.64 22.424C33.688 22.408 33.768 22.232 33.88 21.896C33.992 21.544 34.064 21.256 34.096 21.032C34.096 20.568 34.048 20.304 33.952 20.24C33.952 20.208 33.856 20.008 33.664 19.64C33.6 19.592 33.408 19.472 33.088 19.28L32.392 19.064ZM27.424 16.304L28.768 16.112L30.496 15.992L31.408 16.112C31.472 16.176 31.624 16.216 31.864 16.232C32.328 16.216 32.952 16.48 33.736 17.024C33.928 17.088 34.088 17.2 34.216 17.36L35.128 18.464C35.16 18.496 35.208 18.584 35.272 18.728C35.336 18.856 35.424 19.008 35.536 19.184C35.504 19.184 35.528 19.248 35.608 19.376C35.816 19.728 35.912 19.936 35.896 20C35.976 20.064 36.056 20.272 36.136 20.624C36.216 20.976 36.24 21.216 36.208 21.344C36.224 21.36 36.208 21.544 36.16 21.896C36.048 22.664 35.848 23.232 35.56 23.6L35.248 24.176L34.72 24.944L34.408 25.232C33.832 25.872 33.128 26.368 32.296 26.72C32.264 26.736 32.216 26.752 32.152 26.768L31.576 26.96L30.64 27.2C30.64 27.664 30.696 28.736 30.808 30.416C30.872 30.992 30.92 31.312 30.952 31.376C30.952 31.904 30.92 32.256 30.856 32.432C30.792 32.624 30.688 32.76 30.544 32.84C30.4 32.936 30.152 32.992 29.8 33.008C29.704 33.04 29.536 33.008 29.296 32.912C29.056 32.832 28.864 32.704 28.72 32.528L28.576 31.76C28.608 31.728 28.56 31.576 28.432 31.304C28.32 31.176 28.232 30.952 28.168 30.632L28 28.352L27.976 27.584C27.048 27.648 26.488 27.392 26.296 26.816C26.136 26.512 26.104 26.312 26.2 26.216L26.32 25.904C26.512 25.6 26.88 25.448 27.424 25.448H27.928C27.896 25.416 27.88 25.304 27.88 25.112L27.784 24.104V23.672L27.76 23.36C27.776 23.216 27.768 23.056 27.736 22.88V22.736L27.688 22.136V21.68L27.664 21.44C27.664 20.304 27.6 19.584 27.472 19.28C26.944 19.584 26.592 19.752 26.416 19.784C26.24 19.8 25.944 19.68 25.528 19.424C25.352 19.28 25.256 19.12 25.24 18.944C24.952 18.544 24.856 18.216 24.952 17.96C24.984 17.832 25.112 17.632 25.336 17.36C25.352 17.296 25.544 17.152 25.912 16.928C26.2 16.64 26.704 16.432 27.424 16.304Z" fill="#3A5AFF"/>
    <path d="M18.24 32.648C18.128 32.76 17.784 32.816 17.208 32.816C16.808 32.896 16.336 32.832 15.792 32.624L15.288 32.456L14.544 32.096C14.48 32.096 14.44 32.096 14.424 32.096C14.408 32.112 14.368 32.096 14.304 32.048C14.208 31.968 14.096 31.904 13.968 31.856C13.648 31.632 13.424 31.432 13.296 31.256C12.784 30.44 12.528 29.76 12.528 29.216C12.528 29.152 12.608 29.032 12.768 28.856C13.088 28.472 13.488 28.28 13.968 28.28C14.16 28.296 14.312 28.36 14.424 28.472L15.216 29.504C15.344 29.632 15.488 29.76 15.648 29.888L15.96 30.224L16.44 30.632C16.504 30.664 16.568 30.68 16.632 30.68C16.696 30.712 16.872 30.752 17.16 30.8C17.48 30.72 17.752 30.632 17.976 30.536C18.12 30.392 18.248 30.28 18.36 30.2L18.696 29.816C18.728 29.784 18.784 29.656 18.864 29.432C18.864 29.224 18.864 29.088 18.864 29.024C18.88 28.944 18.856 28.744 18.792 28.424C18.776 28.376 18.664 28.248 18.456 28.04C18.36 27.848 18.224 27.64 18.048 27.416C17.952 27.32 17.488 27.064 16.656 26.648L16.2 26.384L15.768 26C15.56 25.936 15.264 25.72 14.88 25.352C14.72 25.24 14.6 25.152 14.52 25.088C14.424 25.056 14.16 24.784 13.728 24.272C13.728 24.24 13.592 23.936 13.32 23.36L13.104 22.424L13.2 21.8C13.104 21.384 13.072 21.072 13.104 20.864C13.168 20.768 13.248 20.576 13.344 20.288C13.296 20.048 13.512 19.576 13.992 18.872C13.992 18.776 14.344 18.392 15.048 17.72L15.864 17.288L16.248 17.12C16.392 17.104 16.584 17.08 16.824 17.048C17.08 17.016 17.456 17.016 17.952 17.048C18.448 17.08 18.76 17.144 18.888 17.24C19 17.288 19.32 17.504 19.848 17.888C20.552 18.512 20.936 19.072 21 19.568C21.272 20.384 21.288 21.256 21.048 22.184C21.048 22.248 20.824 22.376 20.376 22.568L19.776 22.544C19.264 22.48 18.776 22.216 18.312 21.752C18.184 21.672 18.088 21.448 18.024 21.08C18.008 20.696 17.928 20.464 17.784 20.384C17.768 20.368 17.704 20.224 17.592 19.952C17.32 19.6 17.136 19.424 17.04 19.424C16.96 19.424 16.864 19.448 16.752 19.496C16.176 19.96 15.872 20.48 15.84 21.056C15.728 21.52 15.872 22.088 16.272 22.76C16.448 23.016 16.56 23.144 16.608 23.144C16.704 23.304 16.888 23.504 17.16 23.744L17.496 24.104L18.504 24.848L18.912 25.256L19.368 25.544C19.624 25.656 19.872 25.808 20.112 26C20.432 26.24 20.824 26.688 21.288 27.344C21.384 27.488 21.512 27.92 21.672 28.64V29.576L21.552 30.128C21.472 30.208 21.384 30.368 21.288 30.608C21.288 30.624 21.2 30.84 21.024 31.256C20.976 31.336 20.784 31.504 20.448 31.76C19.968 32.144 19.432 32.432 18.84 32.624C18.712 32.656 18.512 32.664 18.24 32.648Z" fill="#3A5AFF"/>
</svg>
