<svg width="24" height="24" viewBox="0 0 24 24" fill="none" xmlns="http://www.w3.org/2000/svg">
<path d="M13.4224 8.88645C14.368 8.88645 15.2433 9.2843 15.917 9.95097C16.5865 10.6141 17.0567 11.5448 17.1963 12.6153L17.7027 16.5102C17.837 17.5412 17.594 18.5377 17.0951 19.3142C16.5919 20.0956 15.8296 20.656 14.9266 20.8113C14.8541 20.8232 14.7827 20.8328 14.7092 20.8399L14.5098 20.8591L14.2518 20.8818L14.0034 20.9033L13.7646 20.9224L13.5919 20.9355L13.4789 20.9439L13.3691 20.9511L13.2614 20.9582L13.1559 20.9642L13.0024 20.9726L12.8531 20.9797L12.7092 20.9857L12.5258 20.9929L12.3936 20.9965L12.2678 20.9988H12.1857L12.0685 21H11.9512L11.8691 20.9988L11.7433 20.9965L11.6559 20.9941L11.4757 20.9881L11.286 20.9797L11.1367 20.9726L10.9832 20.9642L10.8777 20.9582L10.77 20.9511L10.6602 20.9439L10.5472 20.9355L10.3745 20.9224L10.1357 20.9033L9.88727 20.8818L9.62928 20.8591L9.42992 20.8399C8.52055 20.7527 7.72632 20.2521 7.17942 19.509C6.63572 18.7718 6.33721 17.7957 6.41184 16.7563C6.41823 16.6738 6.4257 16.5914 6.43636 16.509L6.94275 12.6141C7.0824 11.5436 7.55255 10.6129 8.22205 9.94978C8.89581 9.28311 9.55438 9.00006 10.5 9.00006L13.4267 8.88525L13.4224 8.88645Z" fill="white" stroke="white"/>
<path fill-rule="evenodd" clip-rule="evenodd" d="M10.2138 14.948C10.5566 14.948 10.8345 15.66 10.8345 16.5382C10.8345 17.4165 10.5566 18.1285 10.2138 18.1285C9.87094 18.1285 9.59302 17.4165 9.59302 16.5382C9.59302 15.66 9.87094 14.948 10.2138 14.948ZM13.9384 14.948C14.2812 14.948 14.5591 15.66 14.5591 16.5382C14.5591 17.4165 14.2812 18.1285 13.9384 18.1285C13.5955 18.1285 13.3176 17.4165 13.3176 16.5382C13.3176 15.66 13.5955 14.948 13.9384 14.948Z" fill="#272727"/>
<path d="M10.5169 3.17946C12.3996 2.76069 15.3963 2.90863 18.2133 5.45825C21.0799 8.05202 21.0347 8.7786 20.9884 10.3093C20.8786 10.9536 20.7322 11.3974 20.5503 11.6408C20.3005 11.9761 19.9378 12.2708 19.4706 12.5153C18.5955 12.9735 17.3253 13.2646 15.7795 13.3863C14.3748 13.4961 13.5524 13.4376 12.8624 13.3875C12.7268 13.3779 11.4028 13.3386 10.6945 13.4758C9.97759 13.6142 9.42 13.7991 8.9087 13.9673C8.05186 14.2489 7.31882 14.4839 6.26499 14.4434C5.33926 14.4076 4.63205 14.2811 4.13259 14.0306C3.55993 13.7442 3.22193 13.3064 3.09168 12.68C2.87424 11.6337 2.83765 9.35367 5.42107 6.41153C7.75262 3.75811 10.3877 3.2081 10.5169 3.17946Z" fill="#272727" stroke="white"/>
<path fill-rule="evenodd" clip-rule="evenodd" d="M18.2073 5.45274C15.392 2.90842 12.3982 2.76099 10.5169 3.17946C10.5153 3.17982 10.5133 3.18026 10.5109 3.18078C10.3812 3.20917 9.1178 3.48589 7.59389 4.50269C8.37965 5.08783 8.89632 6.07909 8.89632 7.20345C8.89632 9.00192 7.57438 10.4599 5.94368 10.4599C4.98445 10.4599 4.13206 9.9554 3.59273 9.17389C2.8838 10.7683 2.94858 11.9913 3.09168 12.68C3.22193 13.3064 3.55993 13.7442 4.13259 14.0306C4.63205 14.2811 5.33927 14.4076 6.26499 14.4434C7.31882 14.4839 8.05186 14.2489 8.9087 13.9673L8.9312 13.9599C9.43637 13.7937 9.98809 13.6121 10.6945 13.4758C11.4028 13.3386 12.7268 13.3779 12.8624 13.3875C13.5524 13.4376 14.3748 13.4961 15.7795 13.3863C17.3253 13.2646 18.5955 12.9735 19.4706 12.5153C19.9378 12.2708 20.3005 11.9761 20.5503 11.6408C20.7322 11.3974 20.8786 10.9536 20.9884 10.3093L20.9895 10.2737C20.9982 9.98532 21.0061 9.72523 20.9932 9.4751C20.559 10.092 19.8801 10.4891 19.1171 10.4891C17.8063 10.4891 16.7436 9.31703 16.7436 7.87128C16.7436 6.78102 17.3479 5.84644 18.2073 5.45274ZM15.1408 10.0767C15.1408 9.15747 14.0952 8.41229 12.8054 8.41229C11.5156 8.41229 10.47 9.15747 10.47 10.0767C10.47 10.9959 11.5156 11.7411 12.8054 11.7411C14.0952 11.7411 15.1408 10.9959 15.1408 10.0767Z" fill="white"/>
</svg>
