<svg width="163" height="24" viewBox="0 0 163 24" fill="none" xmlns="http://www.w3.org/2000/svg">
<path d="M13.4224 8.88645C14.368 8.88645 15.2433 9.2843 15.917 9.95097C16.5865 10.6141 17.0567 11.5448 17.1963 12.6153L17.7027 16.5102C17.837 17.5412 17.594 18.5377 17.0951 19.3142C16.5919 20.0956 15.8296 20.656 14.9266 20.8113C14.8541 20.8232 14.7827 20.8328 14.7092 20.8399L14.5098 20.8591L14.2518 20.8818L14.0034 20.9033L13.7646 20.9224L13.5919 20.9355L13.4789 20.9439L13.3691 20.9511L13.2614 20.9582L13.1559 20.9642L13.0024 20.9726L12.8531 20.9797L12.7092 20.9857L12.5258 20.9929L12.3936 20.9965L12.2678 20.9988H12.1857L12.0685 21H11.9512L11.8691 20.9988L11.7433 20.9965L11.6559 20.9941L11.4757 20.9881L11.286 20.9797L11.1367 20.9726L10.9832 20.9642L10.8777 20.9582L10.77 20.9511L10.6602 20.9439L10.5472 20.9355L10.3745 20.9224L10.1357 20.9033L9.88727 20.8818L9.62928 20.8591L9.42992 20.8399C8.52055 20.7527 7.72632 20.2521 7.17942 19.509C6.63572 18.7718 6.33721 17.7957 6.41184 16.7563C6.41823 16.6738 6.4257 16.5914 6.43636 16.509L6.94275 12.6141C7.0824 11.5436 7.55255 10.6129 8.22205 9.94978C8.89581 9.28311 9.55438 9.00006 10.5 9.00006L13.4267 8.88525L13.4224 8.88645Z" fill="white" stroke="#1E1E1E"/>
<path fill-rule="evenodd" clip-rule="evenodd" d="M10.2138 14.948C10.5566 14.948 10.8345 15.66 10.8345 16.5382C10.8345 17.4165 10.5566 18.1285 10.2138 18.1285C9.87094 18.1285 9.59302 17.4165 9.59302 16.5382C9.59302 15.66 9.87094 14.948 10.2138 14.948ZM13.9384 14.948C14.2812 14.948 14.5591 15.66 14.5591 16.5382C14.5591 17.4165 14.2812 18.1285 13.9384 18.1285C13.5955 18.1285 13.3176 17.4165 13.3176 16.5382C13.3176 15.66 13.5955 14.948 13.9384 14.948Z" fill="#1E1E1E"/>
<path d="M10.5169 3.17946C12.3996 2.76069 15.3963 2.90863 18.2133 5.45825C21.0799 8.05202 21.0347 8.7786 20.9884 10.3093C20.8786 10.9536 20.7322 11.3974 20.5503 11.6408C20.3005 11.9761 19.9378 12.2708 19.4706 12.5153C18.5955 12.9735 17.3253 13.2646 15.7795 13.3863C14.3748 13.4961 13.5524 13.4376 12.8624 13.3875C12.7268 13.3779 11.4028 13.3386 10.6945 13.4758C9.97759 13.6142 9.42 13.7991 8.9087 13.9673C8.05186 14.2489 7.31882 14.4839 6.26499 14.4434C5.33926 14.4076 4.63205 14.2811 4.13259 14.0306C3.55993 13.7442 3.22193 13.3064 3.09168 12.68C2.87424 11.6337 2.83765 9.35367 5.42107 6.41153C7.75262 3.75811 10.3877 3.2081 10.5169 3.17946Z" fill="#1E1E1E"/>
<mask id="mask0_56_335" style="mask-type:luminance" maskUnits="userSpaceOnUse" x="2" y="2" width="21" height="14">
<path d="M10.5169 3.17946C12.3996 2.76069 15.3963 2.90863 18.2133 5.45825C21.0799 8.05202 21.0347 8.7786 20.9884 10.3093C20.8786 10.9536 20.7322 11.3974 20.5503 11.6408C20.3005 11.9761 19.9378 12.2708 19.4706 12.5153C18.5955 12.9735 17.3253 13.2646 15.7795 13.3863C14.3748 13.4961 13.5524 13.4376 12.8624 13.3875C12.7268 13.3779 11.4028 13.3386 10.6945 13.4758C9.97759 13.6142 9.42 13.7991 8.9087 13.9673C8.05186 14.2489 7.31882 14.4839 6.26499 14.4434C5.33926 14.4076 4.63205 14.2811 4.13259 14.0306C3.55993 13.7442 3.22193 13.3064 3.09168 12.68C2.87424 11.6337 2.83765 9.35367 5.42107 6.41153C7.75262 3.75811 10.3877 3.2081 10.5169 3.17946Z" fill="white" stroke="#1E1E1E" stroke-width="2"/>
</mask>
<g mask="url(#mask0_56_335)">
<path fill-rule="evenodd" clip-rule="evenodd" d="M12.8054 8.41229C14.0952 8.41229 15.1408 9.15747 15.1408 10.0767C15.1408 10.9959 14.0952 11.7411 12.8054 11.7411C11.5156 11.7411 10.47 10.9959 10.47 10.0767C10.47 9.15747 11.5156 8.41229 12.8054 8.41229ZM19.1171 5.2535C20.428 5.2535 21.4907 6.42552 21.4907 7.87128C21.4907 9.31703 20.428 10.4891 19.1171 10.4891C17.8063 10.4891 16.7436 9.31703 16.7436 7.87128C16.7436 6.42552 17.8063 5.2535 19.1171 5.2535ZM5.94369 3.94702C7.57439 3.94702 8.89633 5.40497 8.89633 7.20345C8.89633 9.00192 7.57439 10.4599 5.94369 10.4599C4.31299 10.4599 2.99104 9.00192 2.99104 7.20345C2.99104 5.40497 4.31299 3.94702 5.94369 3.94702Z" fill="white"/>
</g>
<path d="M157.322 17.9281C156.714 17.9281 156.197 17.8375 155.77 17.6561C155.354 17.4641 155.04 17.1655 154.826 16.7601C154.624 16.3441 154.522 15.8001 154.522 15.1281V6.08813H156.89V14.7441C156.89 15.0001 156.933 15.2081 157.018 15.3681C157.114 15.5281 157.242 15.6401 157.402 15.7041C157.562 15.7575 157.744 15.7841 157.946 15.7841H161.69V17.9281H157.322Z" fill="#1E1E1E"/>
<path d="M147.911 18.0241C147.1 18.0241 146.391 17.9494 145.783 17.8001C145.175 17.6401 144.663 17.3521 144.247 16.9361C143.842 16.5094 143.538 15.9014 143.335 15.1121C143.132 14.3227 143.031 13.2934 143.031 12.0241C143.031 10.7547 143.132 9.72541 143.335 8.93607C143.548 8.13607 143.858 7.52274 144.263 7.09607C144.668 6.66941 145.175 6.37607 145.783 6.21607C146.391 6.05607 147.1 5.97607 147.911 5.97607C148.722 5.97607 149.431 6.05607 150.039 6.21607C150.647 6.37607 151.154 6.66941 151.559 7.09607C151.964 7.52274 152.268 8.13607 152.471 8.93607C152.674 9.72541 152.775 10.7547 152.775 12.0241C152.775 13.2934 152.674 14.3227 152.471 15.1121C152.268 15.9014 151.964 16.5094 151.559 16.9361C151.154 17.3521 150.647 17.6401 150.039 17.8001C149.431 17.9494 148.722 18.0241 147.911 18.0241ZM147.911 15.8961C148.391 15.8961 148.791 15.8427 149.111 15.7361C149.431 15.6294 149.682 15.4427 149.863 15.1761C150.055 14.8987 150.194 14.5094 150.279 14.0081C150.364 13.4961 150.407 12.8347 150.407 12.0241C150.407 11.1707 150.364 10.4881 150.279 9.97607C150.194 9.46407 150.055 9.07474 149.863 8.80807C149.682 8.53074 149.431 8.34407 149.111 8.24807C148.791 8.15207 148.391 8.10407 147.911 8.10407C147.452 8.10407 147.063 8.15207 146.743 8.24807C146.423 8.34407 146.162 8.53074 145.959 8.80807C145.767 9.07474 145.623 9.46407 145.527 9.97607C145.442 10.4881 145.399 11.1707 145.399 12.0241C145.399 12.8347 145.436 13.4961 145.511 14.0081C145.596 14.5094 145.735 14.8987 145.927 15.1761C146.119 15.4427 146.375 15.6294 146.695 15.7361C147.026 15.8427 147.431 15.8961 147.911 15.8961Z" fill="#1E1E1E"/>
<path d="M138.1 18.0241C137.407 18.0241 136.793 17.9441 136.26 17.7841C135.737 17.6241 135.289 17.3307 134.916 16.9041C134.553 16.4774 134.276 15.8694 134.084 15.0801C133.903 14.2801 133.812 13.2454 133.812 11.9761C133.812 10.7494 133.908 9.74674 134.1 8.96807C134.303 8.17874 134.591 7.57074 134.964 7.14407C135.337 6.70674 135.791 6.40274 136.324 6.23207C136.857 6.06141 137.46 5.97607 138.132 5.97607C138.665 5.97607 139.161 6.00807 139.62 6.07207C140.089 6.12541 140.511 6.19474 140.884 6.28007C141.257 6.35474 141.572 6.44007 141.828 6.53607V8.37607C141.636 8.33341 141.375 8.29074 141.044 8.24807C140.724 8.20541 140.356 8.17341 139.94 8.15207C139.524 8.12007 139.087 8.10407 138.628 8.10407C138.18 8.10407 137.796 8.15741 137.476 8.26407C137.167 8.36007 136.916 8.54674 136.724 8.82407C136.543 9.09074 136.404 9.48007 136.308 9.99207C136.223 10.5041 136.18 11.1707 136.18 11.9921C136.18 12.7814 136.217 13.4321 136.292 13.9441C136.377 14.4561 136.511 14.8561 136.692 15.1441C136.873 15.4214 137.119 15.6187 137.428 15.7361C137.748 15.8427 138.148 15.8961 138.628 15.8961C139.439 15.8961 140.095 15.8801 140.596 15.8481C141.108 15.8161 141.519 15.7787 141.828 15.7361V17.5601C141.54 17.6561 141.209 17.7414 140.836 17.8161C140.463 17.8801 140.052 17.9281 139.604 17.9601C139.156 18.0027 138.655 18.0241 138.1 18.0241Z" fill="#1E1E1E"/>
<path d="M127.505 18.0241C126.694 18.0241 125.985 17.9494 125.377 17.8001C124.769 17.6401 124.257 17.3521 123.841 16.9361C123.435 16.5094 123.131 15.9014 122.929 15.1121C122.726 14.3227 122.625 13.2934 122.625 12.0241C122.625 10.7547 122.726 9.72541 122.929 8.93607C123.142 8.13607 123.451 7.52274 123.857 7.09607C124.262 6.66941 124.769 6.37607 125.377 6.21607C125.985 6.05607 126.694 5.97607 127.505 5.97607C128.315 5.97607 129.025 6.05607 129.633 6.21607C130.241 6.37607 130.747 6.66941 131.153 7.09607C131.558 7.52274 131.862 8.13607 132.065 8.93607C132.267 9.72541 132.369 10.7547 132.369 12.0241C132.369 13.2934 132.267 14.3227 132.065 15.1121C131.862 15.9014 131.558 16.5094 131.153 16.9361C130.747 17.3521 130.241 17.6401 129.633 17.8001C129.025 17.9494 128.315 18.0241 127.505 18.0241ZM127.505 15.8961C127.985 15.8961 128.385 15.8427 128.705 15.7361C129.025 15.6294 129.275 15.4427 129.457 15.1761C129.649 14.8987 129.787 14.5094 129.873 14.0081C129.958 13.4961 130.001 12.8347 130.001 12.0241C130.001 11.1707 129.958 10.4881 129.873 9.97607C129.787 9.46407 129.649 9.07474 129.457 8.80807C129.275 8.53074 129.025 8.34407 128.705 8.24807C128.385 8.15207 127.985 8.10407 127.505 8.10407C127.046 8.10407 126.657 8.15207 126.337 8.24807C126.017 8.34407 125.755 8.53074 125.553 8.80807C125.361 9.07474 125.217 9.46407 125.121 9.97607C125.035 10.4881 124.993 11.1707 124.993 12.0241C124.993 12.8347 125.03 13.4961 125.105 14.0081C125.19 14.5094 125.329 14.8987 125.521 15.1761C125.713 15.4427 125.969 15.6294 126.289 15.7361C126.619 15.8427 127.025 15.8961 127.505 15.8961Z" fill="#1E1E1E"/>
<path d="M116.096 17.9281V8.21613H112.848V6.08813H121.728V8.21613H118.464V17.9281H116.096Z" fill="#1E1E1E"/>
<path d="M107.083 18.0241C106.272 18.0241 105.563 17.9494 104.955 17.8001C104.347 17.6401 103.835 17.3521 103.419 16.9361C103.013 16.5094 102.709 15.9014 102.507 15.1121C102.304 14.3227 102.203 13.2934 102.203 12.0241C102.203 10.7547 102.304 9.72541 102.507 8.93607C102.72 8.13607 103.029 7.52274 103.435 7.09607C103.84 6.66941 104.347 6.37607 104.955 6.21607C105.563 6.05607 106.272 5.97607 107.083 5.97607C107.893 5.97607 108.603 6.05607 109.211 6.21607C109.819 6.37607 110.325 6.66941 110.731 7.09607C111.136 7.52274 111.44 8.13607 111.643 8.93607C111.845 9.72541 111.947 10.7547 111.947 12.0241C111.947 13.2934 111.845 14.3227 111.643 15.1121C111.44 15.9014 111.136 16.5094 110.731 16.9361C110.325 17.3521 109.819 17.6401 109.211 17.8001C108.603 17.9494 107.893 18.0241 107.083 18.0241ZM107.083 15.8961C107.563 15.8961 107.963 15.8427 108.283 15.7361C108.603 15.6294 108.853 15.4427 109.035 15.1761C109.227 14.8987 109.365 14.5094 109.451 14.0081C109.536 13.4961 109.579 12.8347 109.579 12.0241C109.579 11.1707 109.536 10.4881 109.451 9.97607C109.365 9.46407 109.227 9.07474 109.035 8.80807C108.853 8.53074 108.603 8.34407 108.283 8.24807C107.963 8.15207 107.563 8.10407 107.083 8.10407C106.624 8.10407 106.235 8.15207 105.915 8.24807C105.595 8.34407 105.333 8.53074 105.131 8.80807C104.939 9.07474 104.795 9.46407 104.699 9.97607C104.613 10.4881 104.571 11.1707 104.571 12.0241C104.571 12.8347 104.608 13.4961 104.683 14.0081C104.768 14.5094 104.907 14.8987 105.099 15.1761C105.291 15.4427 105.547 15.6294 105.867 15.7361C106.197 15.8427 106.603 15.8961 107.083 15.8961Z" fill="#1E1E1E"/>
<path d="M92.4755 17.9281V6.08813H97.3715C97.8408 6.08813 98.2782 6.1468 98.6835 6.26413C99.0888 6.3708 99.4462 6.5628 99.7555 6.84013C100.065 7.11747 100.305 7.50147 100.475 7.99213C100.657 8.4828 100.747 9.11213 100.747 9.88013C100.747 10.4241 100.694 10.8881 100.587 11.2721C100.481 11.6561 100.337 11.9708 100.155 12.2161C99.9848 12.4615 99.7875 12.6588 99.5635 12.8081C99.3395 12.9575 99.1102 13.0801 98.8755 13.1761L101.083 17.9281H98.6675L96.7635 13.5441C96.6355 13.5441 96.4862 13.5441 96.3155 13.5441C96.1555 13.5335 95.9902 13.5281 95.8195 13.5281C95.6488 13.5281 95.4782 13.5281 95.3075 13.5281C95.1368 13.5281 94.9822 13.5228 94.8435 13.5121V17.9281H92.4755ZM94.8435 11.6401H96.9555C97.1688 11.6401 97.3608 11.6135 97.5315 11.5601C97.7022 11.5068 97.8515 11.4161 97.9795 11.2881C98.1075 11.1495 98.2035 10.9681 98.2675 10.7441C98.3422 10.5201 98.3795 10.2321 98.3795 9.88013C98.3795 9.54947 98.3422 9.27747 98.2675 9.06413C98.2035 8.84013 98.1075 8.66947 97.9795 8.55213C97.8515 8.42413 97.7022 8.3388 97.5315 8.29613C97.3608 8.2428 97.1688 8.21613 96.9555 8.21613H94.8435V11.6401Z" fill="#1E1E1E"/>
<path d="M82.538 17.9281V6.08813H87.53C87.914 6.08813 88.3033 6.13613 88.698 6.23213C89.1033 6.31747 89.4713 6.4988 89.802 6.77613C90.1433 7.0428 90.4153 7.44813 90.618 7.99213C90.8313 8.53613 90.938 9.25613 90.938 10.1521C90.938 11.0481 90.8313 11.7735 90.618 12.3281C90.4153 12.8828 90.1487 13.3041 89.818 13.5921C89.4873 13.8801 89.13 14.0721 88.746 14.1681C88.362 14.2641 87.9887 14.3121 87.626 14.3121C87.434 14.3121 87.21 14.3068 86.954 14.2961C86.698 14.2748 86.4367 14.2481 86.17 14.2161C85.914 14.1841 85.674 14.1575 85.45 14.1361C85.226 14.1041 85.0447 14.0775 84.906 14.0561V17.9281H82.538ZM84.906 12.1841H87.258C87.5353 12.1841 87.77 12.1201 87.962 11.9921C88.1647 11.8535 88.314 11.6401 88.41 11.3521C88.506 11.0535 88.554 10.6588 88.554 10.1681C88.554 9.68813 88.5007 9.30947 88.394 9.03213C88.298 8.74413 88.154 8.53613 87.962 8.40813C87.7807 8.28013 87.562 8.21613 87.306 8.21613H84.906V12.1841Z" fill="#1E1E1E"/>
<path d="M71.7461 18.0081C71.4901 18.0081 71.1968 17.9815 70.8661 17.9281C70.5355 17.8855 70.2155 17.7788 69.9061 17.6081C69.6075 17.4375 69.3568 17.1815 69.1541 16.8401C68.9621 16.4881 68.8661 16.0081 68.8661 15.4001V8.79213C68.8661 8.26947 68.9461 7.83213 69.1061 7.48013C69.2661 7.12813 69.4795 6.8508 69.7461 6.64813C70.0128 6.44547 70.3061 6.30147 70.6261 6.21613C70.9461 6.1308 71.2608 6.08813 71.5701 6.08813C72.3701 6.08813 73.0741 6.0988 73.6821 6.12013C74.3008 6.14147 74.8555 6.16813 75.3461 6.20013C75.8368 6.22147 76.2848 6.25347 76.6901 6.29613V8.28013H72.2741C71.9435 8.28013 71.6875 8.36013 71.5061 8.52013C71.3248 8.68013 71.2341 8.92547 71.2341 9.25613V10.9681L75.9221 11.0961V12.9681L71.2341 13.0961V14.7281C71.2341 15.0055 71.2768 15.2241 71.3621 15.3841C71.4581 15.5335 71.5808 15.6401 71.7301 15.7041C71.8901 15.7575 72.0555 15.7841 72.2261 15.7841H76.6901V17.7681C76.2208 17.8215 75.6981 17.8641 75.1221 17.8961C74.5568 17.9281 73.9808 17.9548 73.3941 17.9761C72.8181 17.9975 72.2688 18.0081 71.7461 18.0081Z" fill="#1E1E1E"/>
<path d="M58.8349 17.9281V6.08813H63.7309C64.2002 6.08813 64.6375 6.1468 65.0429 6.26413C65.4482 6.3708 65.8055 6.5628 66.1149 6.84013C66.4242 7.11747 66.6642 7.50147 66.8349 7.99213C67.0162 8.4828 67.1069 9.11213 67.1069 9.88013C67.1069 10.4241 67.0535 10.8881 66.9469 11.2721C66.8402 11.6561 66.6962 11.9708 66.5149 12.2161C66.3442 12.4615 66.1469 12.6588 65.9229 12.8081C65.6989 12.9575 65.4695 13.0801 65.2349 13.1761L67.4429 17.9281H65.0269L63.1229 13.5441C62.9949 13.5441 62.8455 13.5441 62.6749 13.5441C62.5149 13.5335 62.3495 13.5281 62.1789 13.5281C62.0082 13.5281 61.8375 13.5281 61.6669 13.5281C61.4962 13.5281 61.3415 13.5228 61.2029 13.5121V17.9281H58.8349ZM61.2029 11.6401H63.3149C63.5282 11.6401 63.7202 11.6135 63.8909 11.5601C64.0615 11.5068 64.2109 11.4161 64.3389 11.2881C64.4669 11.1495 64.5629 10.9681 64.6269 10.7441C64.7015 10.5201 64.7389 10.2321 64.7389 9.88013C64.7389 9.54947 64.7015 9.27747 64.6269 9.06413C64.5629 8.84013 64.4669 8.66947 64.3389 8.55213C64.2109 8.42413 64.0615 8.3388 63.8909 8.29613C63.7202 8.2428 63.5282 8.21613 63.3149 8.21613H61.2029V11.6401Z" fill="#1E1E1E"/>
<path d="M52.2234 18.0241C51.4127 18.0241 50.7034 17.9494 50.0954 17.8001C49.4874 17.6401 48.9754 17.3521 48.5594 16.9361C48.1541 16.5094 47.8501 15.9014 47.6474 15.1121C47.4447 14.3227 47.3434 13.2934 47.3434 12.0241C47.3434 10.7547 47.4447 9.72541 47.6474 8.93607C47.8607 8.13607 48.1701 7.52274 48.5754 7.09607C48.9807 6.66941 49.4874 6.37607 50.0954 6.21607C50.7034 6.05607 51.4127 5.97607 52.2234 5.97607C53.0341 5.97607 53.7434 6.05607 54.3514 6.21607C54.9594 6.37607 55.4661 6.66941 55.8714 7.09607C56.2767 7.52274 56.5807 8.13607 56.7834 8.93607C56.9861 9.72541 57.0874 10.7547 57.0874 12.0241C57.0874 13.2934 56.9861 14.3227 56.7834 15.1121C56.5807 15.9014 56.2767 16.5094 55.8714 16.9361C55.4661 17.3521 54.9594 17.6401 54.3514 17.8001C53.7434 17.9494 53.0341 18.0241 52.2234 18.0241ZM52.2234 15.8961C52.7034 15.8961 53.1034 15.8427 53.4234 15.7361C53.7434 15.6294 53.9941 15.4427 54.1754 15.1761C54.3674 14.8987 54.5061 14.5094 54.5914 14.0081C54.6767 13.4961 54.7194 12.8347 54.7194 12.0241C54.7194 11.1707 54.6767 10.4881 54.5914 9.97607C54.5061 9.46407 54.3674 9.07474 54.1754 8.80807C53.9941 8.53074 53.7434 8.34407 53.4234 8.24807C53.1034 8.15207 52.7034 8.10407 52.2234 8.10407C51.7647 8.10407 51.3754 8.15207 51.0554 8.24807C50.7354 8.34407 50.4741 8.53074 50.2714 8.80807C50.0794 9.07474 49.9354 9.46407 49.8394 9.97607C49.7541 10.4881 49.7114 11.1707 49.7114 12.0241C49.7114 12.8347 49.7487 13.4961 49.8234 14.0081C49.9087 14.5094 50.0474 14.8987 50.2394 15.1761C50.4314 15.4427 50.6874 15.6294 51.0074 15.7361C51.3381 15.8427 51.7434 15.8961 52.2234 15.8961Z" fill="#1E1E1E"/>
<path d="M37.7099 17.9281V6.08813H42.7019C43.0859 6.08813 43.4752 6.13613 43.8699 6.23213C44.2752 6.31747 44.6432 6.4988 44.9739 6.77613C45.3152 7.0428 45.5872 7.44813 45.7899 7.99213C46.0032 8.53613 46.1099 9.25613 46.1099 10.1521C46.1099 11.0481 46.0032 11.7735 45.7899 12.3281C45.5872 12.8828 45.3205 13.3041 44.9899 13.5921C44.6592 13.8801 44.3019 14.0721 43.9179 14.1681C43.5339 14.2641 43.1605 14.3121 42.7979 14.3121C42.6059 14.3121 42.3819 14.3068 42.1259 14.2961C41.8699 14.2748 41.6085 14.2481 41.3419 14.2161C41.0859 14.1841 40.8459 14.1575 40.6219 14.1361C40.3979 14.1041 40.2165 14.0775 40.0779 14.0561V17.9281H37.7099ZM40.0779 12.1841H42.4299C42.7072 12.1841 42.9419 12.1201 43.1339 11.9921C43.3365 11.8535 43.4859 11.6401 43.5819 11.3521C43.6779 11.0535 43.7259 10.6588 43.7259 10.1681C43.7259 9.68813 43.6725 9.30947 43.5659 9.03213C43.4699 8.74413 43.3259 8.53613 43.1339 8.40813C42.9525 8.28013 42.7339 8.21613 42.4779 8.21613H40.0779V12.1841Z" fill="#1E1E1E"/>
<path d="M31.856 18.0242C31.5467 18.0242 31.2267 18.0135 30.896 17.9922C30.576 17.9815 30.2453 17.9602 29.904 17.9282C29.5733 17.8855 29.2587 17.8429 28.96 17.8002C28.6613 17.7469 28.3893 17.6882 28.144 17.6242V15.7522C28.464 15.7842 28.8267 15.8109 29.232 15.8322C29.6373 15.8535 30.0587 15.8695 30.496 15.8802C30.9333 15.8909 31.3493 15.8962 31.744 15.8962C32.1493 15.8962 32.496 15.8642 32.784 15.8002C33.0827 15.7255 33.312 15.6029 33.472 15.4322C33.632 15.2509 33.712 15.0055 33.712 14.6962V14.2642C33.712 13.9122 33.6053 13.6455 33.392 13.4642C33.1893 13.2722 32.896 13.1762 32.512 13.1762H31.504C30.3733 13.1762 29.504 12.9309 28.896 12.4402C28.2987 11.9389 28 11.0909 28 9.89619V9.32019C28 8.16819 28.3307 7.32552 28.992 6.79219C29.6533 6.25885 30.5973 5.99219 31.824 5.99219C32.2613 5.99219 32.6933 6.01352 33.12 6.05619C33.5573 6.09885 33.9733 6.15219 34.368 6.21619C34.7733 6.26952 35.12 6.32819 35.408 6.39219V8.26419C34.9173 8.23219 34.368 8.20019 33.76 8.16819C33.1627 8.13619 32.608 8.12019 32.096 8.12019C31.7333 8.12019 31.408 8.15752 31.12 8.23219C30.8427 8.29619 30.6293 8.42419 30.48 8.61619C30.3307 8.80819 30.256 9.08019 30.256 9.43219V9.75219C30.256 10.1682 30.3733 10.4669 30.608 10.6482C30.8427 10.8295 31.1893 10.9202 31.648 10.9202H32.816C33.5307 10.9202 34.1173 11.0535 34.576 11.3202C35.0453 11.5762 35.392 11.9335 35.616 12.3922C35.8507 12.8509 35.968 13.3735 35.968 13.9602V14.6322C35.968 15.5602 35.792 16.2695 35.44 16.7602C35.0987 17.2509 34.6187 17.5869 34 17.7682C33.392 17.9389 32.6773 18.0242 31.856 18.0242Z" fill="#1E1E1E"/>
</svg>
