<svg width="163" height="24" viewBox="0 0 163 24" fill="none" xmlns="http://www.w3.org/2000/svg">
<path d="M14.4224 8.88645C15.368 8.88645 16.2433 9.2843 16.917 9.95097C17.5865 10.6141 18.0567 11.5448 18.1963 12.6153L18.7027 16.5102C18.837 17.5412 18.594 18.5377 18.0951 19.3142C17.5919 20.0956 16.8296 20.656 15.9266 20.8113C15.8541 20.8232 15.7827 20.8328 15.7092 20.8399L15.5098 20.8591L15.2518 20.8818L15.0034 20.9033L14.7646 20.9224L14.5919 20.9355L14.4789 20.9439L14.3691 20.9511L14.2614 20.9582L14.1559 20.9642L14.0024 20.9726L13.8531 20.9797L13.7092 20.9857L13.5258 20.9929L13.3936 20.9965L13.2678 20.9988H13.1857L13.0685 21H12.9512L12.8691 20.9988L12.7433 20.9965L12.6559 20.9941L12.4757 20.9881L12.286 20.9797L12.1367 20.9726L11.9832 20.9642L11.8777 20.9582L11.77 20.9511L11.6602 20.9439L11.5472 20.9355L11.3745 20.9224L11.1357 20.9033L10.8873 20.8818L10.6293 20.8591L10.4299 20.8399C9.52055 20.7527 8.72632 20.2521 8.17942 19.509C7.63572 18.7718 7.33721 17.7957 7.41184 16.7563C7.41823 16.6738 7.4257 16.5914 7.43636 16.509L7.94275 12.6141C8.0824 11.5436 8.55255 10.6129 9.22205 9.94978C9.89581 9.28311 10.5544 9.00006 11.5 9.00006L14.4267 8.88525L14.4224 8.88645Z" fill="white" stroke="white"/>
<path fill-rule="evenodd" clip-rule="evenodd" d="M11.2138 14.948C11.5566 14.948 11.8345 15.66 11.8345 16.5382C11.8345 17.4165 11.5566 18.1285 11.2138 18.1285C10.8709 18.1285 10.593 17.4165 10.593 16.5382C10.593 15.66 10.8709 14.948 11.2138 14.948ZM14.9384 14.948C15.2812 14.948 15.5591 15.66 15.5591 16.5382C15.5591 17.4165 15.2812 18.1285 14.9384 18.1285C14.5955 18.1285 14.3176 17.4165 14.3176 16.5382C14.3176 15.66 14.5955 14.948 14.9384 14.948Z" fill="#272727"/>
<path d="M11.5169 3.17946C13.3996 2.76069 16.3963 2.90863 19.2133 5.45825C22.0799 8.05202 22.0347 8.7786 21.9884 10.3093C21.8786 10.9536 21.7322 11.3974 21.5503 11.6408C21.3005 11.9761 20.9378 12.2708 20.4706 12.5153C19.5955 12.9735 18.3253 13.2646 16.7795 13.3863C15.3748 13.4961 14.5524 13.4376 13.8624 13.3875C13.7268 13.3779 12.4028 13.3386 11.6945 13.4758C10.9776 13.6142 10.42 13.7991 9.9087 13.9673C9.05186 14.2489 8.31882 14.4839 7.26499 14.4434C6.33926 14.4076 5.63205 14.2811 5.13259 14.0306C4.55993 13.7442 4.22193 13.3064 4.09168 12.68C3.87424 11.6337 3.83765 9.35367 6.42107 6.41153C8.75262 3.75811 11.3877 3.2081 11.5169 3.17946Z" fill="#272727" stroke="white"/>
<path fill-rule="evenodd" clip-rule="evenodd" d="M19.2073 5.45274C16.392 2.90842 13.3982 2.76099 11.5169 3.17946C11.5153 3.17982 11.5133 3.18026 11.5109 3.18078C11.3812 3.20917 10.1178 3.48589 8.59389 4.50269C9.37965 5.08783 9.89632 6.07909 9.89632 7.20345C9.89632 9.00192 8.57438 10.4599 6.94368 10.4599C5.98445 10.4599 5.13206 9.9554 4.59273 9.17389C3.8838 10.7683 3.94858 11.9913 4.09168 12.68C4.22193 13.3064 4.55993 13.7442 5.13259 14.0306C5.63205 14.2811 6.33927 14.4076 7.26499 14.4434C8.31882 14.4839 9.05186 14.2489 9.9087 13.9673L9.9312 13.9599C10.4364 13.7937 10.9881 13.6121 11.6945 13.4758C12.4028 13.3386 13.7268 13.3779 13.8624 13.3875C14.5524 13.4376 15.3748 13.4961 16.7795 13.3863C18.3253 13.2646 19.5955 12.9735 20.4706 12.5153C20.9378 12.2708 21.3005 11.9761 21.5503 11.6408C21.7322 11.3974 21.8786 10.9536 21.9884 10.3093L21.9895 10.2737C21.9982 9.98532 22.0061 9.72523 21.9932 9.4751C21.559 10.092 20.8801 10.4891 20.1171 10.4891C18.8063 10.4891 17.7436 9.31703 17.7436 7.87128C17.7436 6.78102 18.3479 5.84644 19.2073 5.45274ZM16.1408 10.0767C16.1408 9.15747 15.0952 8.41229 13.8054 8.41229C12.5156 8.41229 11.47 9.15747 11.47 10.0767C11.47 10.9959 12.5156 11.7411 13.8054 11.7411C15.0952 11.7411 16.1408 10.9959 16.1408 10.0767Z" fill="white"/>
<path d="M158.322 17.9281C157.714 17.9281 157.197 17.8375 156.77 17.6561C156.354 17.4641 156.04 17.1655 155.826 16.7601C155.624 16.3441 155.522 15.8001 155.522 15.1281V6.08813H157.89V14.7441C157.89 15.0001 157.933 15.2081 158.018 15.3681C158.114 15.5281 158.242 15.6401 158.402 15.7041C158.562 15.7575 158.744 15.7841 158.946 15.7841H162.69V17.9281H158.322Z" fill="white"/>
<path d="M148.911 18.0241C148.1 18.0241 147.391 17.9494 146.783 17.8001C146.175 17.6401 145.663 17.3521 145.247 16.9361C144.842 16.5094 144.538 15.9014 144.335 15.1121C144.132 14.3227 144.031 13.2934 144.031 12.0241C144.031 10.7547 144.132 9.72541 144.335 8.93607C144.548 8.13607 144.858 7.52274 145.263 7.09607C145.668 6.66941 146.175 6.37607 146.783 6.21607C147.391 6.05607 148.1 5.97607 148.911 5.97607C149.722 5.97607 150.431 6.05607 151.039 6.21607C151.647 6.37607 152.154 6.66941 152.559 7.09607C152.964 7.52274 153.268 8.13607 153.471 8.93607C153.674 9.72541 153.775 10.7547 153.775 12.0241C153.775 13.2934 153.674 14.3227 153.471 15.1121C153.268 15.9014 152.964 16.5094 152.559 16.9361C152.154 17.3521 151.647 17.6401 151.039 17.8001C150.431 17.9494 149.722 18.0241 148.911 18.0241ZM148.911 15.8961C149.391 15.8961 149.791 15.8427 150.111 15.7361C150.431 15.6294 150.682 15.4427 150.863 15.1761C151.055 14.8987 151.194 14.5094 151.279 14.0081C151.364 13.4961 151.407 12.8347 151.407 12.0241C151.407 11.1707 151.364 10.4881 151.279 9.97607C151.194 9.46407 151.055 9.07474 150.863 8.80807C150.682 8.53074 150.431 8.34407 150.111 8.24807C149.791 8.15207 149.391 8.10407 148.911 8.10407C148.452 8.10407 148.063 8.15207 147.743 8.24807C147.423 8.34407 147.162 8.53074 146.959 8.80807C146.767 9.07474 146.623 9.46407 146.527 9.97607C146.442 10.4881 146.399 11.1707 146.399 12.0241C146.399 12.8347 146.436 13.4961 146.511 14.0081C146.596 14.5094 146.735 14.8987 146.927 15.1761C147.119 15.4427 147.375 15.6294 147.695 15.7361C148.026 15.8427 148.431 15.8961 148.911 15.8961Z" fill="white"/>
<path d="M139.1 18.0241C138.407 18.0241 137.793 17.9441 137.26 17.7841C136.737 17.6241 136.289 17.3307 135.916 16.9041C135.553 16.4774 135.276 15.8694 135.084 15.0801C134.903 14.2801 134.812 13.2454 134.812 11.9761C134.812 10.7494 134.908 9.74674 135.1 8.96807C135.303 8.17874 135.591 7.57074 135.964 7.14407C136.337 6.70674 136.791 6.40274 137.324 6.23207C137.857 6.06141 138.46 5.97607 139.132 5.97607C139.665 5.97607 140.161 6.00807 140.62 6.07207C141.089 6.12541 141.511 6.19474 141.884 6.28007C142.257 6.35474 142.572 6.44007 142.828 6.53607V8.37607C142.636 8.33341 142.375 8.29074 142.044 8.24807C141.724 8.20541 141.356 8.17341 140.94 8.15207C140.524 8.12007 140.087 8.10407 139.628 8.10407C139.18 8.10407 138.796 8.15741 138.476 8.26407C138.167 8.36007 137.916 8.54674 137.724 8.82407C137.543 9.09074 137.404 9.48007 137.308 9.99207C137.223 10.5041 137.18 11.1707 137.18 11.9921C137.18 12.7814 137.217 13.4321 137.292 13.9441C137.377 14.4561 137.511 14.8561 137.692 15.1441C137.873 15.4214 138.119 15.6187 138.428 15.7361C138.748 15.8427 139.148 15.8961 139.628 15.8961C140.439 15.8961 141.095 15.8801 141.596 15.8481C142.108 15.8161 142.519 15.7787 142.828 15.7361V17.5601C142.54 17.6561 142.209 17.7414 141.836 17.8161C141.463 17.8801 141.052 17.9281 140.604 17.9601C140.156 18.0027 139.655 18.0241 139.1 18.0241Z" fill="white"/>
<path d="M128.505 18.0241C127.694 18.0241 126.985 17.9494 126.377 17.8001C125.769 17.6401 125.257 17.3521 124.841 16.9361C124.435 16.5094 124.131 15.9014 123.929 15.1121C123.726 14.3227 123.625 13.2934 123.625 12.0241C123.625 10.7547 123.726 9.72541 123.929 8.93607C124.142 8.13607 124.451 7.52274 124.857 7.09607C125.262 6.66941 125.769 6.37607 126.377 6.21607C126.985 6.05607 127.694 5.97607 128.505 5.97607C129.315 5.97607 130.025 6.05607 130.633 6.21607C131.241 6.37607 131.747 6.66941 132.153 7.09607C132.558 7.52274 132.862 8.13607 133.065 8.93607C133.267 9.72541 133.369 10.7547 133.369 12.0241C133.369 13.2934 133.267 14.3227 133.065 15.1121C132.862 15.9014 132.558 16.5094 132.153 16.9361C131.747 17.3521 131.241 17.6401 130.633 17.8001C130.025 17.9494 129.315 18.0241 128.505 18.0241ZM128.505 15.8961C128.985 15.8961 129.385 15.8427 129.705 15.7361C130.025 15.6294 130.275 15.4427 130.457 15.1761C130.649 14.8987 130.787 14.5094 130.873 14.0081C130.958 13.4961 131.001 12.8347 131.001 12.0241C131.001 11.1707 130.958 10.4881 130.873 9.97607C130.787 9.46407 130.649 9.07474 130.457 8.80807C130.275 8.53074 130.025 8.34407 129.705 8.24807C129.385 8.15207 128.985 8.10407 128.505 8.10407C128.046 8.10407 127.657 8.15207 127.337 8.24807C127.017 8.34407 126.755 8.53074 126.553 8.80807C126.361 9.07474 126.217 9.46407 126.121 9.97607C126.035 10.4881 125.993 11.1707 125.993 12.0241C125.993 12.8347 126.03 13.4961 126.105 14.0081C126.19 14.5094 126.329 14.8987 126.521 15.1761C126.713 15.4427 126.969 15.6294 127.289 15.7361C127.619 15.8427 128.025 15.8961 128.505 15.8961Z" fill="white"/>
<path d="M117.096 17.9281V8.21613H113.848V6.08813H122.728V8.21613H119.464V17.9281H117.096Z" fill="white"/>
<path d="M108.083 18.0241C107.272 18.0241 106.563 17.9494 105.955 17.8001C105.347 17.6401 104.835 17.3521 104.419 16.9361C104.013 16.5094 103.709 15.9014 103.507 15.1121C103.304 14.3227 103.203 13.2934 103.203 12.0241C103.203 10.7547 103.304 9.72541 103.507 8.93607C103.72 8.13607 104.029 7.52274 104.435 7.09607C104.84 6.66941 105.347 6.37607 105.955 6.21607C106.563 6.05607 107.272 5.97607 108.083 5.97607C108.893 5.97607 109.603 6.05607 110.211 6.21607C110.819 6.37607 111.325 6.66941 111.731 7.09607C112.136 7.52274 112.44 8.13607 112.643 8.93607C112.845 9.72541 112.947 10.7547 112.947 12.0241C112.947 13.2934 112.845 14.3227 112.643 15.1121C112.44 15.9014 112.136 16.5094 111.731 16.9361C111.325 17.3521 110.819 17.6401 110.211 17.8001C109.603 17.9494 108.893 18.0241 108.083 18.0241ZM108.083 15.8961C108.563 15.8961 108.963 15.8427 109.283 15.7361C109.603 15.6294 109.853 15.4427 110.035 15.1761C110.227 14.8987 110.365 14.5094 110.451 14.0081C110.536 13.4961 110.579 12.8347 110.579 12.0241C110.579 11.1707 110.536 10.4881 110.451 9.97607C110.365 9.46407 110.227 9.07474 110.035 8.80807C109.853 8.53074 109.603 8.34407 109.283 8.24807C108.963 8.15207 108.563 8.10407 108.083 8.10407C107.624 8.10407 107.235 8.15207 106.915 8.24807C106.595 8.34407 106.333 8.53074 106.131 8.80807C105.939 9.07474 105.795 9.46407 105.699 9.97607C105.613 10.4881 105.571 11.1707 105.571 12.0241C105.571 12.8347 105.608 13.4961 105.683 14.0081C105.768 14.5094 105.907 14.8987 106.099 15.1761C106.291 15.4427 106.547 15.6294 106.867 15.7361C107.197 15.8427 107.603 15.8961 108.083 15.8961Z" fill="white"/>
<path d="M93.4755 17.9281V6.08813H98.3715C98.8408 6.08813 99.2782 6.1468 99.6835 6.26413C100.089 6.3708 100.446 6.5628 100.755 6.84013C101.065 7.11747 101.305 7.50147 101.475 7.99213C101.657 8.4828 101.747 9.11213 101.747 9.88013C101.747 10.4241 101.694 10.8881 101.587 11.2721C101.481 11.6561 101.337 11.9708 101.155 12.2161C100.985 12.4615 100.787 12.6588 100.563 12.8081C100.339 12.9575 100.11 13.0801 99.8755 13.1761L102.083 17.9281H99.6675L97.7635 13.5441C97.6355 13.5441 97.4862 13.5441 97.3155 13.5441C97.1555 13.5335 96.9902 13.5281 96.8195 13.5281C96.6488 13.5281 96.4782 13.5281 96.3075 13.5281C96.1368 13.5281 95.9822 13.5228 95.8435 13.5121V17.9281H93.4755ZM95.8435 11.6401H97.9555C98.1688 11.6401 98.3608 11.6135 98.5315 11.5601C98.7022 11.5068 98.8515 11.4161 98.9795 11.2881C99.1075 11.1495 99.2035 10.9681 99.2675 10.7441C99.3422 10.5201 99.3795 10.2321 99.3795 9.88013C99.3795 9.54947 99.3422 9.27747 99.2675 9.06413C99.2035 8.84013 99.1075 8.66947 98.9795 8.55213C98.8515 8.42413 98.7022 8.3388 98.5315 8.29613C98.3608 8.2428 98.1688 8.21613 97.9555 8.21613H95.8435V11.6401Z" fill="white"/>
<path d="M83.538 17.9281V6.08813H88.53C88.914 6.08813 89.3033 6.13613 89.698 6.23213C90.1033 6.31747 90.4713 6.4988 90.802 6.77613C91.1433 7.0428 91.4153 7.44813 91.618 7.99213C91.8313 8.53613 91.938 9.25613 91.938 10.1521C91.938 11.0481 91.8313 11.7735 91.618 12.3281C91.4153 12.8828 91.1487 13.3041 90.818 13.5921C90.4873 13.8801 90.13 14.0721 89.746 14.1681C89.362 14.2641 88.9887 14.3121 88.626 14.3121C88.434 14.3121 88.21 14.3068 87.954 14.2961C87.698 14.2748 87.4367 14.2481 87.17 14.2161C86.914 14.1841 86.674 14.1575 86.45 14.1361C86.226 14.1041 86.0447 14.0775 85.906 14.0561V17.9281H83.538ZM85.906 12.1841H88.258C88.5353 12.1841 88.77 12.1201 88.962 11.9921C89.1647 11.8535 89.314 11.6401 89.41 11.3521C89.506 11.0535 89.554 10.6588 89.554 10.1681C89.554 9.68813 89.5007 9.30947 89.394 9.03213C89.298 8.74413 89.154 8.53613 88.962 8.40813C88.7807 8.28013 88.562 8.21613 88.306 8.21613H85.906V12.1841Z" fill="white"/>
<path d="M72.7461 18.0081C72.4901 18.0081 72.1968 17.9815 71.8661 17.9281C71.5355 17.8855 71.2155 17.7788 70.9061 17.6081C70.6075 17.4375 70.3568 17.1815 70.1541 16.8401C69.9621 16.4881 69.8661 16.0081 69.8661 15.4001V8.79213C69.8661 8.26947 69.9461 7.83213 70.1061 7.48013C70.2661 7.12813 70.4795 6.8508 70.7461 6.64813C71.0128 6.44547 71.3061 6.30147 71.6261 6.21613C71.9461 6.1308 72.2608 6.08813 72.5701 6.08813C73.3701 6.08813 74.0741 6.0988 74.6821 6.12013C75.3008 6.14147 75.8555 6.16813 76.3461 6.20013C76.8368 6.22147 77.2848 6.25347 77.6901 6.29613V8.28013H73.2741C72.9435 8.28013 72.6875 8.36013 72.5061 8.52013C72.3248 8.68013 72.2341 8.92547 72.2341 9.25613V10.9681L76.9221 11.0961V12.9681L72.2341 13.0961V14.7281C72.2341 15.0055 72.2768 15.2241 72.3621 15.3841C72.4581 15.5335 72.5808 15.6401 72.7301 15.7041C72.8901 15.7575 73.0555 15.7841 73.2261 15.7841H77.6901V17.7681C77.2208 17.8215 76.6981 17.8641 76.1221 17.8961C75.5568 17.9281 74.9808 17.9548 74.3941 17.9761C73.8181 17.9975 73.2688 18.0081 72.7461 18.0081Z" fill="white"/>
<path d="M59.8349 17.9281V6.08813H64.7309C65.2002 6.08813 65.6375 6.1468 66.0429 6.26413C66.4482 6.3708 66.8055 6.5628 67.1149 6.84013C67.4242 7.11747 67.6642 7.50147 67.8349 7.99213C68.0162 8.4828 68.1069 9.11213 68.1069 9.88013C68.1069 10.4241 68.0535 10.8881 67.9469 11.2721C67.8402 11.6561 67.6962 11.9708 67.5149 12.2161C67.3442 12.4615 67.1469 12.6588 66.9229 12.8081C66.6989 12.9575 66.4695 13.0801 66.2349 13.1761L68.4429 17.9281H66.0269L64.1229 13.5441C63.9949 13.5441 63.8455 13.5441 63.6749 13.5441C63.5149 13.5335 63.3495 13.5281 63.1789 13.5281C63.0082 13.5281 62.8375 13.5281 62.6669 13.5281C62.4962 13.5281 62.3415 13.5228 62.2029 13.5121V17.9281H59.8349ZM62.2029 11.6401H64.3149C64.5282 11.6401 64.7202 11.6135 64.8909 11.5601C65.0615 11.5068 65.2109 11.4161 65.3389 11.2881C65.4669 11.1495 65.5629 10.9681 65.6269 10.7441C65.7015 10.5201 65.7389 10.2321 65.7389 9.88013C65.7389 9.54947 65.7015 9.27747 65.6269 9.06413C65.5629 8.84013 65.4669 8.66947 65.3389 8.55213C65.2109 8.42413 65.0615 8.3388 64.8909 8.29613C64.7202 8.2428 64.5282 8.21613 64.3149 8.21613H62.2029V11.6401Z" fill="white"/>
<path d="M53.2234 18.0241C52.4127 18.0241 51.7034 17.9494 51.0954 17.8001C50.4874 17.6401 49.9754 17.3521 49.5594 16.9361C49.154 16.5094 48.85 15.9014 48.6474 15.1121C48.4447 14.3227 48.3434 13.2934 48.3434 12.0241C48.3434 10.7547 48.4447 9.72541 48.6474 8.93607C48.8607 8.13607 49.17 7.52274 49.5754 7.09607C49.9807 6.66941 50.4874 6.37607 51.0954 6.21607C51.7034 6.05607 52.4127 5.97607 53.2234 5.97607C54.034 5.97607 54.7434 6.05607 55.3514 6.21607C55.9594 6.37607 56.466 6.66941 56.8714 7.09607C57.2767 7.52274 57.5807 8.13607 57.7834 8.93607C57.986 9.72541 58.0874 10.7547 58.0874 12.0241C58.0874 13.2934 57.986 14.3227 57.7834 15.1121C57.5807 15.9014 57.2767 16.5094 56.8714 16.9361C56.466 17.3521 55.9594 17.6401 55.3514 17.8001C54.7434 17.9494 54.034 18.0241 53.2234 18.0241ZM53.2234 15.8961C53.7034 15.8961 54.1034 15.8427 54.4234 15.7361C54.7434 15.6294 54.994 15.4427 55.1754 15.1761C55.3674 14.8987 55.506 14.5094 55.5914 14.0081C55.6767 13.4961 55.7194 12.8347 55.7194 12.0241C55.7194 11.1707 55.6767 10.4881 55.5914 9.97607C55.506 9.46407 55.3674 9.07474 55.1754 8.80807C54.994 8.53074 54.7434 8.34407 54.4234 8.24807C54.1034 8.15207 53.7034 8.10407 53.2234 8.10407C52.7647 8.10407 52.3754 8.15207 52.0554 8.24807C51.7354 8.34407 51.474 8.53074 51.2714 8.80807C51.0794 9.07474 50.9354 9.46407 50.8394 9.97607C50.754 10.4881 50.7114 11.1707 50.7114 12.0241C50.7114 12.8347 50.7487 13.4961 50.8234 14.0081C50.9087 14.5094 51.0474 14.8987 51.2394 15.1761C51.4314 15.4427 51.6874 15.6294 52.0074 15.7361C52.338 15.8427 52.7434 15.8961 53.2234 15.8961Z" fill="white"/>
<path d="M38.7099 17.9281V6.08813H43.7019C44.0859 6.08813 44.4752 6.13613 44.8699 6.23213C45.2752 6.31747 45.6432 6.4988 45.9739 6.77613C46.3152 7.0428 46.5872 7.44813 46.7899 7.99213C47.0032 8.53613 47.1099 9.25613 47.1099 10.1521C47.1099 11.0481 47.0032 11.7735 46.7899 12.3281C46.5872 12.8828 46.3205 13.3041 45.9899 13.5921C45.6592 13.8801 45.3019 14.0721 44.9179 14.1681C44.5339 14.2641 44.1605 14.3121 43.7979 14.3121C43.6059 14.3121 43.3819 14.3068 43.1259 14.2961C42.8699 14.2748 42.6085 14.2481 42.3419 14.2161C42.0859 14.1841 41.8459 14.1575 41.6219 14.1361C41.3979 14.1041 41.2165 14.0775 41.0779 14.0561V17.9281H38.7099ZM41.0779 12.1841H43.4299C43.7072 12.1841 43.9419 12.1201 44.1339 11.9921C44.3365 11.8535 44.4859 11.6401 44.5819 11.3521C44.6779 11.0535 44.7259 10.6588 44.7259 10.1681C44.7259 9.68813 44.6725 9.30947 44.5659 9.03213C44.4699 8.74413 44.3259 8.53613 44.1339 8.40813C43.9525 8.28013 43.7339 8.21613 43.4779 8.21613H41.0779V12.1841Z" fill="white"/>
<path d="M32.856 18.0242C32.5467 18.0242 32.2267 18.0135 31.896 17.9922C31.576 17.9815 31.2453 17.9602 30.904 17.9282C30.5733 17.8855 30.2587 17.8429 29.96 17.8002C29.6613 17.7469 29.3893 17.6882 29.144 17.6242V15.7522C29.464 15.7842 29.8267 15.8109 30.232 15.8322C30.6373 15.8535 31.0587 15.8695 31.496 15.8802C31.9333 15.8909 32.3493 15.8962 32.744 15.8962C33.1493 15.8962 33.496 15.8642 33.784 15.8002C34.0827 15.7255 34.312 15.6029 34.472 15.4322C34.632 15.2509 34.712 15.0055 34.712 14.6962V14.2642C34.712 13.9122 34.6053 13.6455 34.392 13.4642C34.1893 13.2722 33.896 13.1762 33.512 13.1762H32.504C31.3733 13.1762 30.504 12.9309 29.896 12.4402C29.2987 11.9389 29 11.0909 29 9.89619V9.32019C29 8.16819 29.3307 7.32552 29.992 6.79219C30.6533 6.25885 31.5973 5.99219 32.824 5.99219C33.2613 5.99219 33.6933 6.01352 34.12 6.05619C34.5573 6.09885 34.9733 6.15219 35.368 6.21619C35.7733 6.26952 36.12 6.32819 36.408 6.39219V8.26419C35.9173 8.23219 35.368 8.20019 34.76 8.16819C34.1627 8.13619 33.608 8.12019 33.096 8.12019C32.7333 8.12019 32.408 8.15752 32.12 8.23219C31.8427 8.29619 31.6293 8.42419 31.48 8.61619C31.3307 8.80819 31.256 9.08019 31.256 9.43219V9.75219C31.256 10.1682 31.3733 10.4669 31.608 10.6482C31.8427 10.8295 32.1893 10.9202 32.648 10.9202H33.816C34.5307 10.9202 35.1173 11.0535 35.576 11.3202C36.0453 11.5762 36.392 11.9335 36.616 12.3922C36.8507 12.8509 36.968 13.3735 36.968 13.9602V14.6322C36.968 15.5602 36.792 16.2695 36.44 16.7602C36.0987 17.2509 35.6187 17.5869 35 17.7682C34.392 17.9389 33.6773 18.0242 32.856 18.0242Z" fill="white"/>
</svg>
